<svg width="99" height="99" viewBox="0 0 99 99" fill="none" xmlns="http://www.w3.org/2000/svg">
<path fill-rule="evenodd" clip-rule="evenodd" d="M49.3198 98.64C76.5586 98.64 98.6401 76.5587 98.6401 49.3199C98.6401 22.0813 76.5586 0 49.3198 0C22.0811 0 0 22.0813 0 49.3199C0 76.5587 22.0811 98.64 49.3198 98.64ZM40.814 50.6426L42 54.2L38.4424 53.0143L19.7437 46.7819L15 45.2009L19.7432 43.6196L33.7539 38.9487L36.6001 38L36.6074 38.0227L37.5488 40.8461L40.814 50.6426ZM37.2568 49.4568L24.4868 45.2006L34.7026 41.7948L37.2568 49.4568ZM72 26L68.4424 27.1858L42.4463 35.8513L39.6001 36.8L40.5488 39.646L45 53L61.2002 58.4L61.2026 58.3923L63.001 53L70.8145 29.5575L72 26ZM67.2568 30.7433L43.3945 38.6974L47.3716 50.6283L59.3032 54.6055L60.1548 52.0514L67.2568 30.7433ZM45.1855 59.5575L44 56L47.5576 57.1858L57.354 60.4513L60.2002 61.4L59.251 64.246L54.5806 78.2567L52.999 83L51.418 78.2566L45.1855 59.5575ZM56.4053 63.2974L48.7432 60.7433L52.9995 73.5133L56.4053 63.2974Z" fill="#0D78F2"/>
</svg>
